<svg xmlns="http://www.w3.org/2000/svg" width="57.29" height="54.926" viewBox="0 0 57.29 54.926">
  <g id="Group_14" data-name="Group 14" transform="translate(-159.826 -102.362)">
    <path id="Path_3635" data-name="Path 3635" d="M-28.649-10.759h1.721l5.435,8.716v-8.716h1.384V0h-1.633l-5.515-8.708V0h-1.392Zm11.722,0h7.844v1.318h-6.423v3.267h5.94v1.245h-5.94v3.647h6.533V0h-7.954Zm18.445,0v1.282H-2.107V0H-3.587V-9.478H-7.212v-1.282ZM8.6-5.83a2.825,2.825,0,0,0,1.622-.41,1.67,1.67,0,0,0,.6-1.479,1.587,1.587,0,0,0-.835-1.567,2.729,2.729,0,0,0-1.194-.22H5.235V-5.83ZM3.777-10.759h4.98a4.967,4.967,0,0,1,2.029.359A2.541,2.541,0,0,1,12.3-7.859a2.858,2.858,0,0,1-.4,1.582,2.884,2.884,0,0,1-1.117.989,2.2,2.2,0,0,1,.948.674,2.42,2.42,0,0,1,.355,1.355l.051,1.443a4.436,4.436,0,0,0,.1.916.9.9,0,0,0,.469.659V0H10.926a1.344,1.344,0,0,1-.117-.359,6.889,6.889,0,0,1-.073-.85L10.647-3a1.508,1.508,0,0,0-.784-1.414,3.241,3.241,0,0,0-1.311-.2H5.235V0H3.777Zm11.736,0h1.472V0H15.513Zm4.588,0h1.721l5.435,8.716v-8.716h1.384V0H27.008L21.493-8.708V0H20.1Z" transform="translate(188.475 157.288)"/>
    <g id="Group_4" data-name="Group 4" transform="translate(163.11 102.862)">
      <path id="Path_1" data-name="Path 1" d="M655.568,297.046c13.213,4.047,25.341,13.353,25.341,13.353l-25.341-38.441-7.531,11.411L630.2,310.4s23.889-17.173,39.722-16.28" transform="translate(-630.197 -271.958)" fill="none" stroke="#000" stroke-linecap="round" stroke-linejoin="round" stroke-width="1"/>
      <path id="Path_2" data-name="Path 2" d="M1191.561,675.227" transform="translate(-1140.855 -636.794)" fill="none" stroke="#000" stroke-linecap="round" stroke-width="1"/>
      <path id="Path_3" data-name="Path 3" d="M630.327,433.932s10.058-14.068,31.723-28.591" transform="translate(-630.317 -395.496)" fill="none" stroke="#000" stroke-linecap="round" stroke-width="1"/>
      <path id="Path_4" data-name="Path 4" d="M752.423,503.237s-4.914-6.874-15.3-16" transform="translate(-701.681 -464.796)" fill="none" stroke="#000" stroke-linecap="round" stroke-width="1"/>
      <path id="Path_5" data-name="Path 5" d="M636.648,409.794c-1.981-1.467-4.089-2.958-6.321-4.454" transform="translate(-611.308 -395.491)" fill="none" stroke="#000" stroke-linecap="round" stroke-width="1"/>
    </g>
  </g>
</svg>
